HIERARCHY
ROOT Hips
{
	OFFSET 0.000000 0.000000 0.000000
	CHANNELS 6 Xposition Yposition Zposition Xrotation Yrotation Zrotation
	JOINT LeftUpLeg_virtual
	{
		OFFSET 0.000000 0.000000 0.000000
		CHANNELS 3 Xrotation Yrotation Zrotation
		JOINT LeftUpLeg
		{
			OFFSET 11.394100 -6.187798 -0.413800
			CHANNELS 3 Xrotation Yrotation Zrotation
			JOINT LeftLeg
			{
				OFFSET 0.430247 -32.302673 3.732800
				CHANNELS 3 Xrotation Yrotation Zrotation
				JOINT LeftFoot
				{
					OFFSET -0.430247 -48.264931 -6.423300
					CHANNELS 3 Xrotation Yrotation Zrotation
					JOINT LeftToeBase
					{
						OFFSET 4.230900 -16.068199 23.438400
						CHANNELS 3 Xrotation Yrotation Zrotation
						JOINT LeftToe_End
						{
							OFFSET 4.510700 0.695400 19.974600
							CHANNELS 3 Xrotation Yrotation Zrotation
							End Site
							{
								OFFSET 0 0 0
							}
						}
					}
				}
			}
		}
	}
	JOINT RightUpLeg_virtual
	{
		OFFSET 0.000000 0.000000 0.000000
		CHANNELS 3 Xrotation Yrotation Zrotation
		JOINT RightUpLeg
		{
			OFFSET -11.333700 -6.187798 -0.413800
			CHANNELS 3 Xrotation Yrotation Zrotation
			JOINT RightLeg
			{
				OFFSET -0.430392 -32.302628 3.733000
				CHANNELS 3 Xrotation Yrotation Zrotation
				JOINT RightFoot
				{
					OFFSET 0.430392 -48.264973 -6.423500
					CHANNELS 3 Xrotation Yrotation Zrotation
					JOINT RightToeBase
					{
						OFFSET -4.230900 -16.068199 23.438400
						CHANNELS 3 Xrotation Yrotation Zrotation
						JOINT RightToe_End
						{
							OFFSET -4.510700 0.695400 19.974600
							CHANNELS 3 Xrotation Yrotation Zrotation
							End Site
							{
								OFFSET 0 0 0
							}
						}
					}
				}
			}
		}
	}
	JOINT Spine_virtual
	{
		OFFSET 0.000000 0.000000 0.000000
		CHANNELS 3 Xrotation Yrotation Zrotation
		JOINT Spine
		{
			OFFSET -0.002400 12.777504 0.315300
			CHANNELS 3 Xrotation Yrotation Zrotation
			JOINT Spine1
			{
				OFFSET -0.002067 5.816869 0.032633
				CHANNELS 3 Xrotation Yrotation Zrotation
				JOINT Spine1_split
				{
					OFFSET -0.002067 5.816869 0.032633
					CHANNELS 3 Xrotation Yrotation Zrotation
					JOINT Spine2
					{
						OFFSET -0.002067 5.816869 0.032633
						CHANNELS 3 Xrotation Yrotation Zrotation
						JOINT Neck_virtual
						{
							OFFSET 0.000000 0.000000 0.000000
							CHANNELS 3 Xrotation Yrotation Zrotation
							JOINT Neck
							{
								OFFSET -0.003700 21.199493 -0.826900
								CHANNELS 3 Xrotation Yrotation Zrotation
								JOINT Head
								{
									OFFSET 0.000000 20.442200 4.834800
									CHANNELS 3 Xrotation Yrotation Zrotation
									JOINT HeadTop_End
									{
										OFFSET 0.000000 34.668396 4.968400
										CHANNELS 3 Xrotation Yrotation Zrotation
										End Site
										{
											OFFSET 0 0 0
										}
									}
								}
							}
						}
						JOINT LeftShoulder_virtual
						{
							OFFSET 0.000000 0.000000 0.000000
							CHANNELS 3 Xrotation Yrotation Zrotation
							JOINT LeftShoulder
							{
								OFFSET 3.288150 8.794197 -1.372250
								CHANNELS 3 Xrotation Yrotation Zrotation
								JOINT LeftShoulder_split
								{
									OFFSET 3.288150 8.794197 -1.372250
									CHANNELS 3 Xrotation Yrotation Zrotation
									JOINT LeftArm
									{
										OFFSET 11.953299 -2.279007 -0.146200
										CHANNELS 3 Xrotation Yrotation Zrotation
										JOINT LeftForeArm
										{
											OFFSET 18.448900 0.000000 0.000000
											CHANNELS 3 Xrotation Yrotation Zrotation
											JOINT LeftHand
											{
												OFFSET 29.527798 0.000000 0.000000
												CHANNELS 3 Xrotation Yrotation Zrotation
												End Site
												{
													OFFSET 0 0 0
												}
											}
										}
									}
								}
							}
						}
						JOINT RightShoulder_virtual
						{
							OFFSET 0.000000 0.000000 0.000000
							CHANNELS 3 Xrotation Yrotation Zrotation
							JOINT RightShoulder
							{
								OFFSET -3.249400 8.794197 -1.372250
								CHANNELS 3 Xrotation Yrotation Zrotation
								JOINT RightShoulder_split
								{
									OFFSET -3.249400 8.794197 -1.372250
									CHANNELS 3 Xrotation Yrotation Zrotation
									JOINT RightArm
									{
										OFFSET -11.953299 -2.279007 -0.146200
										CHANNELS 3 Xrotation Yrotation Zrotation
										JOINT RightForeArm
										{
											OFFSET -18.448900 0.000000 0.000000
											CHANNELS 3 Xrotation Yrotation Zrotation
											JOINT RightHand
											{
												OFFSET -29.527802 0.000000 0.000000
												CHANNELS 3 Xrotation Yrotation Zrotation
												End Site
												{
													OFFSET 0 0 0
												}
											}
										}
									}
								}
							}
						}
					}
				}
			}
		}
	}
}
MOTION
Frames: 5
Frame Time: 0.03333333
0.935286 92.176773 0.420364 0.000000 0.000000 0.000000 -19.537978 -17.581134 -5.504606 -108.595001 0.023241 31.106389 112.299006 -13.835090 0.924930 -10.891140 1.435982 23.597306 -23.184502 -1.100568 -7.371506 0.000000 0.000000 0.000000 -19.751015 -20.858346 -6.089541 -124.151365 0.355191 -25.217397 123.064313 16.979135 -7.785021 14.610748 -4.276685 15.071603 -25.566289 10.481878 8.283011 0.000000 0.000000 0.000000 -16.690044 -22.195504 -7.718923 5.994101 6.636601 0.536246 14.862116 1.612173 -1.394874 0.573830 -12.832903 2.062716 0.000000 0.000000 0.000000 20.305471 1.321437 -0.863674 -26.237733 -1.549049 -3.748470 -9.766365 10.063287 4.085726 0.000000 0.000000 0.000000 15.993054 1.703656 -1.101002 2.526268 -4.714145 39.226398 1.504241 -3.053502 -0.222004 -47.526850 -28.796675 -7.339206 -18.919341 -35.780475 0.216704 0.000000 0.000000 0.000000 15.533225 0.991017 -0.970440 10.439250 19.724540 -35.828205 7.044628 3.001949 -0.901237 -56.852968 22.000222 12.223870 -15.451331 38.921580 5.549794 0.000000 0.000000 0.000000 
0.719150 90.690765 0.062622 0.000000 0.000000 0.000000 -21.049554 -16.776726 -5.486426 -110.455722 0.243570 30.795458 113.348178 -14.107408 1.016058 -8.525276 1.570720 21.874096 -25.315640 -1.651506 -5.909753 0.000000 0.000000 0.000000 -21.086563 -19.197664 -6.088125 -125.558179 1.482389 -24.572990 123.090104 16.928849 -7.320863 16.221322 -4.629832 14.895816 -27.289471 9.181495 10.188000 0.000000 0.000000 0.000000 -18.966235 -21.907010 -7.704430 6.062747 6.124743 0.683223 14.662454 1.566869 -1.184903 0.803146 -8.781224 2.701248 0.000000 0.000000 0.000000 19.921676 1.150557 -0.660580 -24.729187 -1.069374 -3.395998 -9.345638 11.466767 3.977708 0.000000 0.000000 0.000000 15.989386 1.529479 -0.756120 2.513887 -4.801027 39.575851 -0.664069 -2.780287 0.569880 -50.794040 -27.862500 -6.175616 -18.961625 -33.640792 1.118210 0.000000 0.000000 0.000000 14.935447 0.667591 -0.935641 10.551271 21.132849 -35.615478 6.866349 -0.433321 -0.585611 -58.970357 19.770746 12.767054 -17.823070 41.976266 7.096520 0.000000 0.000000 0.000000 
0.566880 89.479416 -0.188194 0.000000 0.000000 0.000000 -22.959252 -15.765338 -5.538394 -112.184313 0.704908 31.082606 114.294999 -14.371422 1.416068 -3.541614 1.604114 19.480283 -29.766374 -2.427045 -4.521142 0.000000 0.000000 0.000000 -23.367981 -17.127220 -6.222994 -124.525113 1.926178 -25.031093 122.816077 16.136226 -6.251649 16.470583 -5.678512 12.952744 -29.222213 8.154421 12.426189 0.000000 0.000000 0.000000 -21.295869 -20.908314 -7.706525 6.117356 5.229477 0.741629 13.879021 1.342569 -0.728208 4.491598 -5.393671 2.732824 0.000000 0.000000 0.000000 18.611760 0.947846 -0.317249 -23.065405 -0.650466 -2.431169 -9.017538 12.402509 3.233448 0.000000 0.000000 0.000000 14.790980 1.238158 -0.217867 2.641694 -5.292962 40.404397 -1.316498 -3.128086 1.223572 -55.032969 -25.433987 -7.620280 -18.745299 -34.051993 1.928871 0.000000 0.000000 0.000000 13.438792 0.329183 -0.604850 10.372146 22.257353 -35.245463 6.561455 -3.527184 0.177896 -59.035545 18.271765 12.314973 -20.850621 45.030556 8.233609 0.000000 0.000000 0.000000 
0.701514 89.240395 -0.465580 0.000000 0.000000 0.000000 -25.073937 -14.299506 -5.498763 -112.811434 1.494411 32.390738 113.793062 -14.404041 1.394127 1.770609 1.608093 17.537993 -34.836376 -3.110117 -4.062014 0.000000 0.000000 0.000000 -26.281726 -14.955647 -6.323038 -121.429671 1.841249 -26.286968 121.890914 14.983043 -5.224095 15.695416 -6.446735 10.580146 -31.489218 7.575535 14.533516 0.000000 0.000000 0.000000 -23.310923 -19.551010 -7.824180 6.426212 4.157168 0.809990 12.985475 1.028310 -0.175615 7.125030 -0.839186 1.350012 0.000000 0.000000 0.000000 16.938744 0.763348 0.063495 -21.830932 -0.573698 -0.972303 -8.759771 12.785807 2.044220 0.000000 0.000000 0.000000 13.308581 0.844810 0.395832 2.818541 -5.943647 41.050274 -0.779215 -3.324951 2.169398 -58.861641 -21.957538 -11.200370 -18.390317 -35.937153 2.637819 0.000000 0.000000 0.000000 11.795666 0.069644 -0.046420 10.098448 23.052034 -34.872538 5.917386 -4.754592 0.672969 -57.206465 17.782766 12.185479 -23.469683 48.048892 8.463251 0.000000 0.000000 0.000000 
0.926572 90.096909 -1.097633 0.000000 0.000000 0.000000 -27.620252 -12.966769 -5.499007 -111.386308 2.152390 33.971524 111.564494 -14.722474 1.392051 6.986368 1.569636 14.993971 -39.687026 -3.461758 -4.321479 0.000000 0.000000 0.000000 -29.257245 -12.418713 -6.031686 -116.149703 1.260967 -27.500829 120.207655 13.991433 -4.991446 14.175478 -6.083372 8.373070 -36.157048 7.250923 16.137213 0.000000 0.000000 0.000000 -25.302820 -18.017476 -8.058605 7.156493 3.193080 0.968787 12.505673 0.613129 0.349852 8.056439 2.581130 0.554200 0.000000 0.000000 0.000000 15.814005 0.577099 0.394233 -21.436554 -1.170536 0.660275 -8.168628 12.706567 0.740770 0.000000 0.000000 0.000000 12.364466 0.456610 0.911412 2.891421 -6.359908 41.039731 0.884560 -2.962607 3.536792 -62.098461 -17.924348 -16.183087 -18.216997 -37.464964 3.344538 0.000000 0.000000 0.000000 10.876636 -0.097856 0.614959 9.704527 23.462258 -34.719484 5.339418 -3.827909 0.903518 -54.485133 18.162409 13.006295 -24.595417 50.367598 7.162884 0.000000 0.000000 0.000000 
